<?xml version="1.0" encoding="UTF-8"?>
<svg id="Calque_1" xmlns="http://www.w3.org/2000/svg" xmlns:xlink="http://www.w3.org/1999/xlink" version="1.1" viewBox="0 0 281.8 89.6">
  <defs>
    <style>
      .st0 {
        fill: url(#Dégradé_sans_nom_2);
      }

      .st1 {
        fill: #ffffff;
      }

      .st2 {
        fill: url(#Dégradé_sans_nom_47);
      }

      .st3 {
        fill: #fb0a92;
      }
    </style>
    <linearGradient id="Dégradé_sans_nom_2" data-name="Dégradé sans nom 2" x1="153.9" y1="9.3" x2="198.2" y2="52" gradientUnits="userSpaceOnUse">
      <stop offset="0" stop-color="#ff2d55"/>
      <stop offset="1" stop-color="#7928ca"/>
    </linearGradient>
    <linearGradient id="Dégradé_sans_nom_47" data-name="Dégradé sans nom 47" x1="143.2" y1="48.4" x2="143.2" y2="73.9" gradientUnits="userSpaceOnUse">
      <stop offset="0" stop-color="#ffffff"/>
      <stop offset="1" stop-color="#ffffff" stop-opacity="0"/>
    </linearGradient>
  </defs>
  <g>
    <rect class="st1" y="5.8" width="15.6" height="49.9"/>
    <polygon class="st1" points="125.3 5.8 104.9 28.8 104.9 5.8 89.8 5.8 89.8 45.9 89.8 55.7 99.4 55.7 104.9 55.7 104.9 49.5 104.9 30.3 113.3 39.9 122.5 29.6 143.5 5.8 125.3 5.8"/>
    <polygon class="st1" points="266.9 5.8 266.8 6 248.8 27.8 230.8 6 230.6 5.8 215.7 5.8 215.7 8.5 215.7 55.7 230.8 55.7 230.8 26.7 248.8 48.5 266.8 26.7 266.8 55.7 281.8 55.7 281.8 8.5 281.8 5.8 266.9 5.8"/>
    <path class="st0" d="M176,0c-17.6,0-31.9,13.7-31.9,30.6s14.3,30.6,31.9,30.6,31.9-13.7,31.9-30.6S193.7,0,176,0ZM190.2,44.8h-28.4v-28.4h28.4v28.4Z"/>
    <path class="st1" d="M81.3,22.2c0-10.9-10-16.5-19.2-16.5H25.1v49.9h37c9.1,0,19.2-4.5,19.2-16.5v-16.9ZM40.3,22.4v-4.4h20.5c.2,0,.5,0,.7,0,2.4.3,4.4,2.1,5.1,4.4.2.5.2,1.1.2,1.7v13c0,.6,0,1.2-.2,1.7-.7,2.3-2.7,4-5.1,4.3-.2,0-.5,0-.7,0h-20.5v-20.8Z"/>
  </g>
  <g>
    <path class="st3" d="M41.4,89.3h-2.5l-1.3-3.2h-6.3l-1.4,3.2h-2.4l5.8-13.3h2.2l5.8,13.3ZM34.5,78.8l-2.3,5.3h4.6l-2.3-5.3Z"/>
    <path class="st3" d="M50.4,89.3h-2.3v-11.1h-4.2v-2.2h10.7v2.2h-4.2v11.1Z"/>
    <path class="st3" d="M69.7,78.2h-7.5v3.4h6.6v2.1h-6.6v3.5h7.6v2.1h-9.9v-13.2h9.8v2.1Z"/>
    <path class="st3" d="M75.4,76.1h2.3v11.1h7v2.1h-9.3v-13.2Z"/>
    <path class="st3" d="M92.4,76.1v13.2h-2.3v-13.2h2.3Z"/>
    <path class="st3" d="M108.6,78.2h-7.5v3.4h6.6v2.1h-6.6v3.5h7.6v2.1h-9.9v-13.2h9.8v2.1Z"/>
    <path class="st3" d="M122.8,89.3l-3.3-4.6h-2.9v4.6h-2.3v-13.2h5.9c.8,0,1.4,0,2.1.3.6.2,1.1.5,1.6.8.4.4.7.8,1,1.3.2.5.3,1.1.3,1.7s0,1.1-.2,1.5c-.2.4-.4.8-.7,1.2-.3.3-.6.6-1,.9-.4.2-.8.4-1.3.5l3.6,5h-2.7ZM122.1,78.7c-.5-.4-1.2-.6-2-.6h-3.4v4.5h3.4c.8,0,1.5-.2,2-.6.5-.4.7-.9.7-1.6s-.2-1.3-.7-1.7Z"/>
    <path class="st3" d="M149.2,82.5c-.3.6-.7,1-1.1,1.4-.5.4-1,.7-1.7.9-.6.2-1.3.3-2.1.3h-2.6v4.3h-2.3v-13.2h5.2c.8,0,1.5.1,2.1.3.6.2,1.2.5,1.6.9.4.4.8.9,1,1.4.2.5.3,1.2.3,1.8s-.1,1.4-.4,2ZM146.5,78.8c-.5-.4-1.2-.6-2.1-.6h-2.7v4.8h2.7c.9,0,1.6-.2,2.1-.7.5-.4.8-1,.8-1.7s-.3-1.4-.8-1.8Z"/>
    <path class="st3" d="M157.1,83.7v5.6h-2.3v-13.2h2.3v5.5h6.4v-5.5h2.3v13.2h-2.3v-5.6h-6.4Z"/>
    <path class="st3" d="M178.3,89.3h-2.3v-5.2l-5.3-8h2.7l3.7,5.9,3.7-5.9h2.7l-5.3,8v5.3Z"/>
    <path class="st3" d="M198,88.3c-.4.3-.8.5-1.3.7-.5.2-1,.3-1.5.4s-1.1.2-1.7.2c-1,0-2-.2-2.8-.5-.8-.3-1.6-.8-2.2-1.4-.6-.6-1.1-1.3-1.4-2.2-.3-.8-.5-1.7-.5-2.7s.2-1.8.5-2.6c.3-.8.8-1.6,1.4-2.2.6-.6,1.3-1.1,2.2-1.5.8-.4,1.8-.5,2.8-.5s1.1,0,1.6.1c.5,0,.9.2,1.3.3.4.2.8.3,1.1.6.4.2.7.5,1,.8l-1.5,1.8c-.3-.2-.5-.4-.8-.6-.3-.2-.5-.3-.8-.4-.3-.1-.6-.2-1-.3-.3,0-.7-.1-1.1-.1-.6,0-1.2.1-1.7.4-.5.2-1,.6-1.4,1-.4.4-.7.9-.9,1.5-.2.6-.3,1.2-.3,1.8s.1,1.3.3,1.9c.2.6.5,1.1.9,1.5.4.4.9.8,1.4,1s1.2.4,1.8.4,1.2,0,1.8-.3,1-.4,1.4-.7v-2.5h-3.4v-2h5.6v5.6c-.3.3-.7.5-1.1.8Z"/>
    <path class="st3" d="M207.4,76.1v13.2h-2.3v-13.2h2.3Z"/>
    <path class="st3" d="M219.4,89.3h-2.3v-11.1h-4.2v-2.2h10.7v2.2h-4.2v11.1Z"/>
    <path class="st3" d="M239.9,89.3h-2.5l-1.3-3.2h-6.3l-1.4,3.2h-2.4l5.8-13.3h2.2l5.8,13.3ZM232.9,78.8l-2.3,5.3h4.6l-2.3-5.3Z"/>
    <path class="st3" d="M245,76.1h2.3v11.1h7v2.1h-9.3v-13.2Z"/>
  </g>
  <polygon class="st2" points="122.5 29.6 113.3 39.9 155 89.3 173.1 89.3 122.5 29.6"/>
</svg>
